<?xml version="1.0" encoding="UTF-8"?>
<svg version="1.1" xmlns="http://www.w3.org/2000/svg" width="844" height="305">
<path d="M0 0 C1.02015198 -0.00335861 2.04030396 -0.00671722 3.09136963 -0.01017761 C6.46229268 -0.01967246 9.83316597 -0.02163011 13.20410156 -0.02270508 C15.55194113 -0.02591908 17.89978049 -0.02928326 20.24761963 -0.03279114 C25.17029281 -0.03877902 30.09294844 -0.04063143 35.015625 -0.04003906 C41.31131446 -0.03993755 47.60689086 -0.05357992 53.90255356 -0.07081127 C58.75311801 -0.08195259 63.60365533 -0.0839576 68.45423126 -0.08342934 C70.77456298 -0.08460661 73.09489546 -0.08901418 75.41521454 -0.0967617 C78.6675142 -0.10660289 81.91957109 -0.10366699 85.171875 -0.09765625 C86.59832336 -0.10608551 86.59832336 -0.10608551 88.05358887 -0.11468506 C98.10134296 -0.06770289 106.04491733 1.52678477 113.84472656 8.14526367 C119.45237183 14.21680173 121.09947204 20.48585578 121.07177734 28.71118164 C121.0720694 29.44357559 121.07236145 30.17596954 121.07266235 30.93055725 C121.0712775 33.33297896 121.05575653 35.73508415 121.04003906 38.13745117 C121.03630592 39.81039256 121.03346037 41.48333615 121.03146362 43.15628052 C121.02385086 47.54571639 121.00422275 51.93501857 120.98205566 56.32440186 C120.96154632 60.80894157 120.95245105 65.29350301 120.94238281 69.77807617 C120.9209745 78.56720667 120.88581171 87.3562031 120.84472656 96.14526367 C111.93472656 96.14526367 103.02472656 96.14526367 93.84472656 96.14526367 C93.84061768 94.11152588 93.83650879 92.07778809 93.83227539 89.98242188 C93.81506432 83.25675275 93.77054036 76.53146314 93.71263599 69.80602741 C93.67837054 65.72900881 93.6532568 61.65236472 93.64916992 57.57519531 C93.64488586 53.63910283 93.6164158 49.70385512 93.57129478 45.76802635 C93.55832295 44.26781322 93.55401105 42.76749898 93.55857277 41.26723671 C93.56348174 39.16226052 93.53738181 37.05975069 93.50415039 34.95507812 C93.49415764 33.15971367 93.49415764 33.15971367 93.48396301 31.32807922 C92.99525713 27.37241401 92.99525713 27.37241401 87.84472656 23.14526367 C77.61472656 22.81526367 67.38472656 22.48526367 56.84472656 22.14526367 C56.84472656 46.56526367 56.84472656 70.98526367 56.84472656 96.14526367 C47.93472656 96.14526367 39.02472656 96.14526367 29.84472656 96.14526367 C29.84472656 71.72526367 29.84472656 47.30526367 29.84472656 22.14526367 C1.55769304 19.52037569 1.55769304 19.52037569 -5.15527344 27.14526367 C-6.56657847 29.96787374 -6.3192167 32.36607851 -6.3605957 35.52270508 C-6.3754451 36.503377 -6.3754451 36.503377 -6.39059448 37.50386047 C-6.42222055 39.66814534 -6.44697116 41.83245218 -6.47167969 43.99682617 C-6.49224827 45.49613012 -6.51324472 46.99542826 -6.53465271 48.49472046 C-6.58988331 52.44351499 -6.63928819 56.39236193 -6.6875 60.34124756 C-6.73770783 64.36971713 -6.79339763 68.39811045 -6.84863281 72.42651367 C-6.95622649 80.332701 -7.05716225 88.23895298 -7.15527344 96.14526367 C-16.06527344 96.14526367 -24.97527344 96.14526367 -34.15527344 96.14526367 C-34.22323687 86.78269072 -34.27819736 77.42028347 -34.31070995 68.05751896 C-34.32631979 63.70931342 -34.34747175 59.36128641 -34.3815918 55.01318359 C-34.41435327 50.8115865 -34.43216161 46.6101604 -34.43990517 42.40844536 C-34.4454187 40.81098174 -34.45618486 39.21352674 -34.47246361 37.61613655 C-34.58038793 26.57996965 -34.2359409 16.96333092 -27.03027344 7.93823242 C-19.35610834 0.59981205 -10.02103745 -0.00473524 0 0 Z " fill="#303030" transform="translate(496.1552734375,96.854736328125)"/>
<path d="M0 0 C0.98905838 -0.00960754 1.97811676 -0.01921509 2.99714661 -0.02911377 C4.05858383 -0.03336365 5.12002106 -0.03761353 6.21362305 -0.04199219 C7.87738228 -0.0505423 7.87738228 -0.0505423 9.57475281 -0.05926514 C11.92580211 -0.06870607 14.27686459 -0.07524551 16.62792969 -0.07910156 C20.17431805 -0.08872868 23.72010691 -0.11972851 27.26635742 -0.15136719 C47.05664336 -0.2450419 66.62373343 0.22651541 81.8737793 14.70019531 C91.81834282 26.70225474 93.92405778 41.00869338 92.9128418 56.16113281 C90.99110825 68.75749569 86.0076007 79.17709623 75.9128418 87.16113281 C64.38636394 94.45274449 52.3874057 96.64029457 38.9284668 96.45410156 C37.74685974 96.44985672 36.56525269 96.44561188 35.34783936 96.4412384 C31.61926284 96.42461034 27.89125155 96.38698796 24.1628418 96.34863281 C21.61597467 96.33356547 19.06909897 96.31988068 16.5222168 96.30761719 C10.31870535 96.2773266 4.11639705 96.21857314 -2.0871582 96.16113281 C-2.0871582 110.02113281 -2.0871582 123.88113281 -2.0871582 138.16113281 C-10.9971582 138.16113281 -19.9071582 138.16113281 -29.0871582 138.16113281 C-29.1776715 123.35698661 -29.25126352 108.55301386 -29.29440689 93.74865246 C-29.31497716 86.87375627 -29.34299075 79.99904502 -29.38891602 73.12426758 C-29.43324828 66.48475388 -29.45632324 59.84538123 -29.46666718 53.20571327 C-29.47403501 50.67767636 -29.48842249 48.14964946 -29.51007843 45.62169456 C-29.53928523 42.0697533 -29.54310685 38.51859553 -29.54125977 34.96655273 C-29.55564087 33.93076584 -29.57002197 32.89497894 -29.58483887 31.82780457 C-29.53704464 23.28576742 -27.52916536 16.03961477 -22.9621582 8.78613281 C-16.39422293 2.78932235 -8.82230071 0.06968747 0 0 Z M-1.0871582 27.16113281 C-2.2631585 29.51313341 -2.20800361 30.89847682 -2.20068359 33.51904297 C-2.20060806 34.41982574 -2.20053253 35.32060852 -2.20045471 36.24868774 C-2.19529343 37.22268524 -2.19013214 38.19668274 -2.18481445 39.20019531 C-2.18339951 40.19618744 -2.18198456 41.19217957 -2.18052673 42.21835327 C-2.17491756 45.40764334 -2.1623635 48.59686387 -2.1496582 51.78613281 C-2.14464438 53.94498597 -2.14008127 56.10384022 -2.13598633 58.26269531 C-2.12494516 63.56219831 -2.10819808 68.86166059 -2.0871582 74.16113281 C5.0294162 74.26289706 12.14580159 74.3327511 19.26293945 74.38085938 C21.6819561 74.40092346 24.10092456 74.42818125 26.51977539 74.46289062 C30.00508547 74.51163622 33.48975196 74.53415446 36.9753418 74.55175781 C38.04961426 74.57240295 39.12388672 74.5930481 40.23071289 74.61431885 C46.66807538 74.61622475 51.55744969 73.90230354 56.9128418 70.16113281 C63.17144417 63.90253043 64.44181579 56.98754166 64.9128418 48.45019531 C64.9128418 41.05413649 63.75896595 34.94955889 58.9128418 29.16113281 C52.11733826 22.66108595 46.10426115 21.8440778 37.09643555 21.79003906 C36.16235367 21.78101059 35.22827179 21.77198212 34.2658844 21.76268005 C32.29838243 21.74822106 30.33083286 21.73930168 28.36328125 21.7355957 C25.35619674 21.72365606 22.35113715 21.67439234 19.34448242 21.62402344 C17.42847677 21.61456309 15.51245858 21.6073262 13.59643555 21.60253906 C12.70049179 21.58300674 11.80454803 21.56347443 10.88145447 21.54335022 C5.15878455 21.58469944 2.54553422 22.35394385 -1.0871582 27.16113281 Z " fill="#323232" transform="translate(656.087158203125,97.8388671875)"/>
<path d="M0 0 C1.46474258 -0.0049926 1.46474258 -0.0049926 2.95907593 -0.01008606 C5.01812269 -0.01512665 7.07717754 -0.01749528 9.13623047 -0.01733398 C12.24330561 -0.01951015 15.35001923 -0.03766839 18.45703125 -0.05664062 C37.47285915 -0.11203699 57.12468123 0.07054583 71.6484375 14.16796875 C82.60312426 25.66712305 84.06576455 39.19901486 83.86328125 54.38671875 C83.50808715 65.61173465 79.82821999 76.22218465 72.26953125 84.69921875 C62.75310647 93.32132891 49.902531 98.21278087 37.10229492 98.3449707 C36.01313278 98.35780594 34.92397064 98.37064117 33.80180359 98.38386536 C32.63099747 98.39125229 31.46019135 98.39863922 30.25390625 98.40625 C29.0337532 98.41432175 27.81360016 98.42239349 26.55647278 98.43070984 C23.97003593 98.44453543 21.38358096 98.45526439 18.79711914 98.46313477 C16.17597026 98.47460482 13.55484381 98.49497654 10.93383789 98.5246582 C-25.78215917 98.94017085 -25.78215917 98.94017085 -40.3515625 88.16796875 C-41.19074219 87.55308594 -42.02992188 86.93820313 -42.89453125 86.3046875 C-49.37021311 80.67321218 -53.32911549 72.41332966 -55.3515625 64.16796875 C-55.53332031 63.4409375 -55.71507812 62.71390625 -55.90234375 61.96484375 C-58.17759881 47.79890792 -57.0836759 31.78109985 -49.0390625 19.60546875 C-40.45311788 8.61837012 -28.56001312 2.69385005 -14.83496094 0.64233398 C-9.8894039 0.04337558 -4.9766022 0.00601322 0 0 Z M-22.2265625 28.73046875 C-28.96625282 37.31536431 -29.1453616 47.16697781 -28.10546875 57.6484375 C-27.14165957 63.42135642 -24.72722847 68.2231116 -20.3515625 72.16796875 C-13.63020625 76.30057006 -8.27402208 76.758166 -0.4765625 76.69921875 C1.20928955 76.70495911 1.20928955 76.70495911 2.92919922 76.71081543 C5.2959076 76.71352691 7.66264633 76.70621959 10.02929688 76.68945312 C13.63740295 76.66803425 17.24351785 76.68928267 20.8515625 76.71484375 C23.15885853 76.71220034 25.46615333 76.70707509 27.7734375 76.69921875 C28.8444873 76.70731567 29.91553711 76.7154126 31.01904297 76.72375488 C39.08341783 76.62354251 44.51926366 75.088531 50.4609375 69.54296875 C56.10696119 61.8941326 56.45712299 52.31060752 55.6484375 43.16796875 C54.48313619 36.1955826 52.03372974 30.84913077 46.6484375 26.16796875 C41.84892655 23.28826218 37.66706233 22.05537024 32.11450195 22.00683594 C31.22289871 21.99722839 30.33129547 21.98762085 29.41267395 21.97772217 C28.45535873 21.97347229 27.49804352 21.96922241 26.51171875 21.96484375 C25.51770554 21.95914368 24.52369232 21.9534436 23.4995575 21.9475708 C21.3956305 21.93812982 19.29168878 21.9315904 17.18774414 21.92773438 C13.99012972 21.9180571 10.79316601 21.88703645 7.59570312 21.85546875 C5.5468788 21.84893531 3.49804989 21.84368618 1.44921875 21.83984375 C0.02842766 21.82132355 0.02842766 21.82132355 -1.42106628 21.8024292 C-8.91997569 21.82723178 -17.11141155 22.63555008 -22.2265625 28.73046875 Z " fill="#313131" transform="translate(368.3515625,96.83203125)"/>
<path d="M0 0 C11.18793696 -0.04643936 22.37585081 -0.08192806 33.56386471 -0.10362434 C38.75948948 -0.11403999 43.95504807 -0.12815858 49.15063477 -0.15087891 C54.16918649 -0.17268652 59.18767475 -0.1845853 64.20627022 -0.18975449 C66.11631837 -0.19343605 68.02636323 -0.20062511 69.9363842 -0.21146011 C72.62164563 -0.22608035 75.30664822 -0.22797356 77.99194336 -0.22705078 C78.77310013 -0.23424133 79.5542569 -0.24143188 80.35908508 -0.24884033 C90.01378185 -0.21318233 97.46319034 1.8348897 105 8 C107.5625 10.875 107.5625 10.875 109 13 C107.87851873 15.99061672 106.58698255 18.76469487 105.0625 21.5625 C97.68643172 36.59089379 97.49804638 56.33688789 102.76953125 72.11328125 C103.96169393 74.91013274 105.32086598 77.45240643 106.875 80.0625 C109.02900587 83.6881869 109.02900587 83.6881869 108.75 86.6875 C103.78899989 93.24310729 97.20327347 97.7611661 89 99 C86.07901336 99.08825548 83.18287783 99.12642054 80.26245117 99.11352539 C79.39365326 99.11367142 78.52485535 99.11381744 77.62973022 99.1139679 C74.76745071 99.11327306 71.90523685 99.10550073 69.04296875 99.09765625 C67.05471329 99.09579055 65.06645738 99.09436736 63.07820129 99.09336853 C57.85200729 99.08955534 52.6258412 99.07973528 47.3996582 99.06866455 C42.06396868 99.05842467 36.72827464 99.05386539 31.39257812 99.04882812 C20.92837317 99.03811194 10.46418891 99.0210499 0 99 C1.39134165 96.84418492 2.80436711 94.71116839 4.25944519 92.59754944 C6.02012779 90.05067226 6.02012779 90.05067226 7.41499329 87.43455505 C9.86178966 83.45651181 11.57846467 81.35131145 16.21444702 80.20559692 C20.31202577 79.89232292 24.3140766 79.88284924 28.41796875 79.97265625 C29.92296581 79.97208055 31.42796669 79.9672458 32.93293762 79.95835876 C36.87941174 79.9451085 40.82361734 79.98363682 44.76971436 80.03503418 C50.33764144 80.09828531 55.9059784 80.09213534 61.47419739 80.09165955 C64.43618685 80.09143809 67.39693504 80.11169688 70.35868835 80.14820862 C71.710723 80.15760781 73.06275849 80.16688656 74.41479492 80.17602539 C75.59281174 80.18984756 76.77082855 80.20366974 77.98454285 80.21791077 C80.93816487 80.00446849 82.56093519 79.63227408 85 78 C87.48231836 74.09921401 87.10999162 70.49258576 86.47265625 66.08984375 C85.8561191 63.3638324 85.13444902 61.82952773 83 60 C79.43992501 59.08423738 76.04952555 58.85367053 72.38354492 58.79467773 C71.28278122 58.77473251 70.18201752 58.75478729 69.04789734 58.73423767 C67.8706459 58.71752518 66.69339447 58.70081268 65.48046875 58.68359375 C64.26676102 58.66281265 63.05305328 58.64203156 61.80256653 58.62062073 C57.93093449 58.55531084 54.05923545 58.49632637 50.1875 58.4375 C47.56053998 58.39429715 44.93358671 58.35068229 42.30664062 58.30664062 C35.87116429 58.19964842 29.43562151 58.09784764 23 58 C22.97315688 55.18743719 22.95323812 52.37512759 22.9375 49.5625 C22.92912109 48.76005859 22.92074219 47.95761719 22.91210938 47.13085938 C22.9034857 45.08704779 22.9477185 43.04316098 23 41 C24.72300132 39.27699868 27.02405574 39.85730978 29.37426758 39.84228516 C30.52248489 39.83202301 31.67070221 39.82176086 32.85371399 39.81118774 C34.73016853 39.80023575 34.73016853 39.80023575 36.64453125 39.7890625 C39.26628228 39.76099362 41.88802699 39.73232916 44.50976562 39.703125 C48.66410954 39.66066582 52.81841498 39.62391812 56.97290039 39.59863281 C59.67549511 39.58173914 62.37780339 39.55704914 65.08024597 39.52377319 C67.62986137 39.4927245 70.17965068 39.47336784 72.72944641 39.46670532 C73.88712021 39.45013885 75.04479401 39.43357239 76.23754883 39.41650391 C77.76524651 39.40437363 77.76524651 39.40437363 79.32380676 39.39199829 C82.41439114 38.93930161 83.77833108 38.16832019 86 36 C87.51208397 31.46374809 87.68984709 27.63384838 85.8125 23.1875 C83.63281136 20.5568413 82.24420199 20.01360479 79 19 C75.8908123 18.74827549 75.8908123 18.74827549 72.51660156 18.85571289 C71.22465881 18.87134781 69.93271606 18.88698273 68.60162354 18.90309143 C67.57295544 18.92114429 67.57295544 18.92114429 66.52350616 18.93956184 C62.86222635 18.99637133 59.20071426 18.99550163 55.5390625 19.00585938 C50.89272911 19.023359 46.24808612 19.05723041 41.60253906 19.1472168 C37.83528101 19.21868607 34.07106574 19.23578983 30.30321503 19.21795464 C28.87585235 19.22105782 27.44838158 19.24370819 26.02167511 19.28709602 C14.97095337 19.60956319 14.97095337 19.60956319 10.20202637 15.71505737 C6.12294643 10.86098962 3.09586506 5.50509742 0 0 Z " fill="#056ECF" transform="translate(101,97)"/>
<path d="M0 0 C1.50599477 0.00374135 3.01199201 0.006583 4.51799011 0.00857544 C8.43550628 0.01612372 12.3528684 0.03569375 16.27032471 0.0579834 C20.28631508 0.07863432 24.30233093 0.08761783 28.31835938 0.09765625 C36.16413187 0.11895025 44.00977853 0.15297627 51.85546875 0.1953125 C50.02122864 4.05388291 47.60646066 7.28333302 44.98046875 10.6328125 C44.54605469 11.19291016 44.11164063 11.75300781 43.6640625 12.33007812 C42.40017331 13.95643404 41.13187786 15.57876013 39.85546875 17.1953125 C39.37916016 18.07445313 38.90285156 18.95359375 38.41210938 19.859375 C34.28605734 23.62924378 29.83069715 22.84354893 24.44140625 22.76171875 C22.75417953 22.77017067 22.75417953 22.77017067 21.03286743 22.77879333 C17.43164666 22.79527036 13.83164714 22.77969758 10.23046875 22.7578125 C6.65082284 22.74117084 3.07199947 22.73221391 -0.50765991 22.74754333 C-2.73375733 22.75675421 -4.96002904 22.74789304 -7.1859436 22.71791077 C-14.5801996 22.74367712 -21.91395904 23.66866304 -27.79605103 28.57203674 C-33.89111865 35.34417317 -34.21824419 44.51561418 -34.14453125 53.1953125 C-33.23456716 59.73188789 -31.78647746 66.30905334 -27.14453125 71.1953125 C-20.24101435 75.51877547 -13.58068514 75.74449771 -5.62890625 75.6640625 C-4.45491272 75.67111206 -3.28091919 75.67816162 -2.0713501 75.6854248 C1.65448128 75.70736589 5.37959201 75.70447054 9.10546875 75.6953125 C14.02773147 75.68328227 18.94892523 75.69690935 23.87109375 75.7265625 C24.99823792 75.71524292 26.12538208 75.70392334 27.28668213 75.69226074 C35.09518259 75.74280701 35.09518259 75.74280701 38.94384766 78.03344727 C41.40707936 80.81913267 43.75524745 83.65564332 45.98046875 86.6328125 C46.40972656 87.19291016 46.83898437 87.75300781 47.28125 88.33007812 C49.69409744 91.51132468 51.83001251 94.75889296 53.85546875 98.1953125 C44.30123957 98.26519946 34.74710004 98.31831846 25.19266987 98.35074902 C20.75490015 98.36632363 16.31730688 98.38740957 11.87963867 98.42163086 C7.58724958 98.45452005 3.29502891 98.47222699 -0.99747658 98.47994423 C-2.62512674 98.48543523 -4.25276897 98.49615572 -5.8803463 98.51250267 C-22.00944299 98.66787573 -38.24940246 96.97640735 -50.58203125 85.3828125 C-60.70940518 74.33094801 -63.55061616 60.71894483 -63.42578125 46.09765625 C-62.7115014 36.18702336 -60.41821757 26.09551009 -54.14453125 18.1953125 C-53.42265625 17.1640625 -52.70078125 16.1328125 -51.95703125 15.0703125 C-39.30718734 0.522992 -17.65108935 -0.13094163 0 0 Z " fill="#323232" transform="translate(269.14453125,96.8046875)"/>
</svg>
