<?xml version="1.0" encoding="UTF-8"?>
<svg version="1.1" xmlns="http://www.w3.org/2000/svg" width="480" height="112">
<path d="M0 0 C14.47103036 -0.58539767 28.22050738 4.0068391 39.1640625 13.46484375 C51.12270093 24.96353455 57.72208502 38.2176938 58.1640625 54.90234375 C57.88220775 71.24991926 52.12729459 84.14541656 41.1171875 96.0234375 C29.87597189 106.80827898 15.76302088 110.60713347 0.64697266 110.58618164 C-15.4716099 110.23051616 -28.05308859 103.12209896 -39.11328125 91.59375 C-42.56408813 87.45410643 -44.9386313 83.04884441 -47.1484375 78.15234375 C-47.56222656 77.28480469 -47.97601563 76.41726562 -48.40234375 75.5234375 C-53.40740817 63.26364557 -52.95515338 47.26407385 -48.40625 34.9375 C-41.45525821 19.54601817 -31.0782474 9.57807103 -15.3984375 3.27734375 C-10.18789694 1.405477 -5.51521245 0.3910787 0 0 Z " fill="#525E66" transform="translate(51.1484375,0.84765625)"/>
<path d="M0 0 C4.29 0 8.58 0 13 0 C16.30631545 3.86835767 18.15292532 6.56647216 20.3125 11 C20.87388672 12.04929687 21.43527344 13.09859375 22.01367188 14.1796875 C23.38751846 16.76298878 24.70001451 19.37875265 26 22 C26.33 14.74 26.66 7.48 27 0 C30.63 0 34.26 0 38 0 C38 14.52 38 29.04 38 44 C26 44 26 44 23.35253906 41.88867188 C22.82885742 40.92509766 22.30517578 39.96152344 21.765625 38.96875 C21.17265625 37.93105469 20.5796875 36.89335938 19.96875 35.82421875 C19.11796875 34.17873047 19.11796875 34.17873047 18.25 32.5 C17.32960938 30.85451172 17.32960938 30.85451172 16.390625 29.17578125 C14.88635173 26.47279022 13.43757436 23.73904701 12 21 C11.67 28.59 11.34 36.18 11 44 C7.37 44 3.74 44 0 44 C0 29.48 0 14.96 0 0 Z " fill="#242021" transform="translate(423,34)"/>
<path d="M0 0 C3.96 0 7.92 0 12 0 C15.01424238 3.27648778 16.64473253 5.49262473 18.625 9.3125 C19.37716797 10.63411133 19.37716797 10.63411133 20.14453125 11.98242188 C21.07082443 13.6152309 21.97884647 15.2586455 22.86181641 16.9152832 C24.06837605 19.19805727 24.06837605 19.19805727 26 22 C26.33 14.74 26.66 7.48 27 0 C30.63 0 34.26 0 38 0 C38 14.52 38 29.04 38 44 C34.04 44 30.08 44 26 44 C22.98575762 40.72351222 21.35526747 38.50737527 19.375 34.6875 C18.62283203 33.36588867 18.62283203 33.36588867 17.85546875 32.01757812 C16.92917557 30.3847691 16.02115353 28.7413545 15.13818359 27.0847168 C13.93162395 24.80194273 13.93162395 24.80194273 12 22 C11.67 29.26 11.34 36.52 11 44 C7.37 44 3.74 44 0 44 C0 29.48 0 14.96 0 0 Z " fill="#231F20" transform="translate(215,34)"/>
<path d="M0 0 C5.94242167 3.51694344 10.16395054 8.13204254 12.0625 14.8125 C12.94207789 22.93304739 13.36963598 31.14964704 8.0625 37.8125 C3.07065805 43.03652065 -2.49511881 45.59734194 -9.6796875 45.9453125 C-16.15423343 45.64041699 -21.05032661 44.1455721 -25.9375 39.8125 C-31.89655337 33.16986445 -32.36498965 27.23175575 -32.2734375 18.43359375 C-31.69928527 12.24476686 -29.76118373 7.18571278 -24.9296875 3.125 C-17.60822616 -1.6298974 -8.35609081 -3.26496264 0 0 Z M-18.9375 13.8125 C-20.75658353 19.26975059 -20.59485294 24.80392158 -18.8125 30.25 C-16.44226624 33.48931947 -14.77840328 34.63068361 -10.9375 35.8125 C-6.60353499 35.28943526 -4.59120176 34.46620176 -1.5 31.375 C1.15959776 25.31111711 0.99260047 19.46328634 -1.1875 13.25 C-3.04974104 10.65616427 -3.89250101 9.68249971 -6.9375 8.8125 C-12.7662564 7.92551533 -14.9763963 9.8513963 -18.9375 13.8125 Z " fill="#242021" transform="translate(407.9375,34.1875)"/>
<path d="M0 0 C3.96 0 7.92 0 12 0 C12 5.28 12 10.56 12 16 C16.62 16 21.24 16 26 16 C26 10.72 26 5.44 26 0 C29.96 0 33.92 0 38 0 C38 14.52 38 29.04 38 44 C34.04 44 30.08 44 26 44 C26 38.06 26 32.12 26 26 C21.38 26 16.76 26 12 26 C12 31.94 12 37.88 12 44 C8.04 44 4.08 44 0 44 C0 29.48 0 14.96 0 0 Z " fill="#231F20" transform="translate(294,34)"/>
<path d="M0 0 C10.89 0 21.78 0 33 0 C33 3.3 33 6.6 33 10 C26.07 10 19.14 10 12 10 C12 11.98 12 13.96 12 16 C18.6 16 25.2 16 32 16 C32 19.3 32 22.6 32 26 C25.4 26 18.8 26 12 26 C12 28.97 12 31.94 12 35 C19.59 35 27.18 35 35 35 C35 37.97 35 40.94 35 44 C23.45 44 11.9 44 0 44 C0 29.48 0 14.96 0 0 Z " fill="#231F20" transform="translate(340,34)"/>
<path d="M0 0 C4.29 0 8.58 0 13 0 C18.9173796 14.57577971 24.52654104 29.25206892 30 44 C25.71 44 21.42 44 17 44 C15 40 15 40 15 37 C9.72 37 4.44 37 -1 37 C-1.33 38.98 -1.66 40.96 -2 43 C-3 44 -3 44 -5.94140625 44.09765625 C-7.13636719 44.08605469 -8.33132812 44.07445312 -9.5625 44.0625 C-11.35880859 44.04896484 -11.35880859 44.04896484 -13.19140625 44.03515625 C-14.11824219 44.02355469 -15.04507813 44.01195312 -16 44 C-10.92047366 29.23507457 -5.53187579 14.60114155 0 0 Z M6 15 C5.49487756 16.60256108 4.99608373 18.20711792 4.5 19.8125 C4.2215625 20.70582031 3.943125 21.59914063 3.65625 22.51953125 C2.87211649 25.05573395 2.87211649 25.05573395 3 28 C5.64 28 8.28 28 11 28 C10.71517632 26.58194169 10.42181856 25.16559621 10.125 23.75 C9.96257812 22.96109375 9.80015625 22.1721875 9.6328125 21.359375 C9.00849925 19.03168856 8.15161458 17.10968048 7 15 C6.67 15 6.34 15 6 15 Z " fill="#252122" transform="translate(184,34)"/>
<path d="M0 0 C6.4659375 -0.0928125 6.4659375 -0.0928125 13.0625 -0.1875 C14.40836182 -0.21481201 15.75422363 -0.24212402 17.14086914 -0.27026367 C23.5145161 -0.31452841 28.44986154 -0.28175322 34 3 C37.54567225 6.63658693 38.27677208 9.5710106 38.4375 14.5 C38.23450991 19.03344533 37.86525717 22.32888925 35 26 C28.54062312 31.53908931 19.9536958 30.37282949 12 30 C12 34.62 12 39.24 12 44 C8.04 44 4.08 44 0 44 C0 29.48 0 14.96 0 0 Z M12 9 C12 12.96 12 16.92 12 21 C18.00679136 21.18174247 18.00679136 21.18174247 24 21 C26.35639408 19.06110754 26.35639408 19.06110754 26.375 15.5625 C26.3781992 12.02486739 26.3781992 12.02486739 24.3046875 10.2890625 C21.55061227 8.74864754 19.88053859 8.68892611 16.75 8.8125 C14.39875 8.9053125 14.39875 8.9053125 12 9 Z " fill="#242021" transform="translate(135,34)"/>
<path d="M0 0 C11.55 0 23.1 0 35 0 C35 3.3 35 6.6 35 10 C31.37 10 27.74 10 24 10 C24 21.22 24 32.44 24 44 C20.04 44 16.08 44 12 44 C12 32.78 12 21.56 12 10 C8.04 10 4.08 10 0 10 C0 6.7 0 3.4 0 0 Z " fill="#231F20" transform="translate(256,34)"/>
<path d="M0 0 C19.47 0 38.94 0 59 0 C59 3.96 59 7.92 59 12 C39.53 12 20.06 12 0 12 C0 8.04 0 4.08 0 0 Z " fill="#F8F8F9" transform="translate(25,28)"/>
<path d="M0 0 C3.63 0 7.26 0 11 0 C11 11.88 11 23.76 11 36 C7.37 36 3.74 36 0 36 C0 24.12 0 12.24 0 0 Z " fill="#F6F6F6" transform="translate(63,51)"/>
<path d="M0 0 C3.63 0 7.26 0 11 0 C11 11.88 11 23.76 11 36 C7.37 36 3.74 36 0 36 C0 24.12 0 12.24 0 0 Z " fill="#F8F8F9" transform="translate(49,51)"/>
<path d="M0 0 C3.63 0 7.26 0 11 0 C11 11.88 11 23.76 11 36 C7.37 36 3.74 36 0 36 C0 24.12 0 12.24 0 0 Z " fill="#FCFCFC" transform="translate(34,51)"/>
<path d="M0 0 C16.5 0 33 0 50 0 C50 1.65 50 3.3 50 5 C33.5 5 17 5 0 5 C0 3.35 0 1.7 0 0 Z " fill="#F5F6F6" transform="translate(29,43)"/>
<path d="M0 0 C2 3 2 3 1.8125 6.5625 C1 10 1 10 -2 12 C-5.0875593 12.32162076 -7.14015561 12.48724515 -9.875 10.9375 C-11.66235303 7.85928089 -11.43386742 5.47093932 -11 2 C-7.88980721 -1.98104677 -4.56233816 -1.18282841 0 0 Z M-8 2 C-8.67958603 4.39719432 -8.67958603 4.39719432 -9 7 C-8.34 7.66 -7.68 8.32 -7 9 C-7 6.69 -7 4.38 -7 2 C-7.33 2 -7.66 2 -8 2 Z M-2 5 C-1.67 5.99 -1.34 6.98 -1 8 C-0.67 7.01 -0.34 6.02 0 5 C-0.66 5 -1.32 5 -2 5 Z M-5 8 C-5.33 8.66 -5.66 9.32 -6 10 C-5.01 9.67 -4.02 9.34 -3 9 C-3.66 8.67 -4.32 8.34 -5 8 Z " fill="#2D292B" transform="translate(477,35)"/>
</svg>
